<svg width="55" height="55" viewBox="0 0 55 55" fill="none" xmlns="http://www.w3.org/2000/svg" role="img" aria-label="Smart messenger AI interviewer logo">
  <rect x="3.5" y="3.5" width="48" height="48" rx="15" fill="black" stroke="white" stroke-width="3"/>
  
  <path d="M14 19.5C14 15.9101 16.9101 13 20.5 13H34.5C38.0899 13 41 15.9101 41 19.5V27.5C41 31.0899 38.0899 34 34.5 34H27.8L21.2 39V34H20.5C16.9101 34 14 31.0899 14 27.5V19.5Z" fill="white"/>
  
  <path d="M20.2 25.8L25.2 21.5L28.2 24.1L34.3 19.6L29.7 27L26.7 24.5L20.2 25.8Z" fill="black"/>
  
  <circle cx="37.5" cy="16.5" r="3.5" fill="white"/>
  <path d="M37.5 14.8V18.2" stroke="white" stroke-width="1.4" stroke-linecap="round"/>
  <path d="M35.8 16.5H39.2" stroke="white" stroke-width="1.4" stroke-linecap="round"/>
</svg>